<?xml version="1.0" encoding="utf-8"?>
<svg version="1.1" xmlns="http://www.w3.org/2000/svg" xmlns:xlink="http://www.w3.org/1999/xlink" height="24" width="24">
  <defs>
    <rect id="rect-1" opacity="1" x="0" y="0" width="24" height="24"/>
    <mask id="mask-2" maskUnits="userSpaceOnUse" maskContentUnits="userSpaceOnUse">
      <rect opacity="1" x="0" y="0" width="24" height="24" fill="Black"/>
      <use xlink:href="#rect-1" fill="White"/>
    </mask>
    <path id="path-3" opacity="1" fill-rule="evenodd" d="M17.44138189649135 7.676373851982086C17.44138189649135 7.676373851982086 17.549398337464524 7.936884091976811 17.35242718039546 8.121147432460885L14.219950392168219 11.253624220690153L14.219950392168219 15.96822417376544C14.219950392168219 15.96822417376544 14.219950392168219 16.235088322052718 13.972147968758758 16.34310476302614C13.972147968758758 16.34310476302614 13.889547160955605 16.374874304488912 13.813300261445004 16.374874304488912C13.813300261445004 16.374874304488912 13.641744737546148 16.374874304488912 13.527374388280244 16.25415004693038L10.900773865387595 14.627549524036482C10.900773865387595 14.627549524036482 10.78004960782914 14.50682526647795 10.78004960782914 14.341623650871538L10.78004960782914 11.253624220690153L7.647572819601895 8.121147432460885C7.647572819601895 8.121147432460885 7.450601662532838 7.936884091976811 7.558618103506192 7.676373851982086C7.558618103506192 7.676373851982086 7.666634544479545 7.428571428572468 7.933498692766654 7.428571428572468L17.066501307230702 7.428571428572468C17.066501307230702 7.428571428572468 17.333365455517814 7.428571428572468 17.441381896491166 7.676373851982086L17.44138189649135 7.676373851982086Z"/>
    <mask id="mask-4" maskUnits="userSpaceOnUse" maskContentUnits="userSpaceOnUse" x="0" y="0">
      <rect opacity="1" x="0" y="0" width="24" height="24" fill="black"/>
      <use xlink:href="#path-3" fill="white"/>
    </mask>
  </defs>
  <g>
    <g opacity="1">
      <g/>
      <g mask="url(#mask-2)">
        <g opacity="1">
          <g opacity="1">
            <use xlink:href="#path-3" fill-opacity="0" stroke="rgb(0,0,0)" stroke-opacity="1" stroke-width="2" stroke-linecap="butt" stroke-linejoin="miter" mask="url(#mask-4)"/>
          </g>
        </g>
      </g>
    </g>
  </g>
</svg>