<?xml version="1.0" encoding="UTF-8" standalone="no"?>
<svg
   xmlns:dc="http://purl.org/dc/elements/1.1/"
   xmlns:cc="http://creativecommons.org/ns#"
   xmlns:rdf="http://www.w3.org/1999/02/22-rdf-syntax-ns#"
   xmlns:svg="http://www.w3.org/2000/svg"
   xmlns="http://www.w3.org/2000/svg"
   id="svg11"
   version="1.1"
   viewBox="0 0 58 57.590111"
   height="57.590111"
   width="58">
  <metadata
     id="metadata15">
    <rdf:RDF>
      <cc:Work
         rdf:about="">
        <dc:format>image/svg+xml</dc:format>
        <dc:type
           rdf:resource="http://purl.org/dc/dcmitype/StillImage" />
      </cc:Work>
    </rdf:RDF>
  </metadata>
  <!-- Generator: Sketch 48.2 (47327) - http://www.bohemiancoding.com/sketch -->
  <title
     id="title2">NEW</title>
  <desc
     id="desc4">Created with Sketch.</desc>
  <defs
     id="defs6" />
  <g
     transform="translate(-1,-1)"
     style="fill:none;fill-rule:evenodd;stroke:none;stroke-width:1"
     id="listing-page">
    <g
       style="fill:#fed400"
       id="NEW">
      <path
         id="Shape-Copy-2"
         d="m 58.448306,33.097135 -5.149143,-5.172488 c -0.551694,-0.554195 -0.735591,-1.477854 -0.367796,-2.032049 l 3.494062,-6.46561 c 0.183898,-0.369463 0.183898,-0.923658 0,-1.293122 -0.183898,-0.369463 -0.551694,-0.738927 -0.91949,-0.738927 l -7.17202,-1.847317 C 47.598327,15.362891 47.046633,14.808695 46.862735,13.885037 L 46.311041,6.4957684 c 0,-0.3694634 -0.183898,-0.9236585 -0.735592,-1.1083903 C 45.207653,5.2026464 44.65596,5.0179147 44.288164,5.2026464 l -6.988123,2.586244 c -0.735592,0.1847317 -1.655081,0 -2.022877,-0.5541952 L 31.047511,1.6927439 c -0.735592,-0.92365854 -2.206776,-0.92365854 -2.942368,0 L 23.875491,7.2346952 C 23.323797,7.7888904 22.588205,8.1583538 21.852613,7.7888904 L 15.416185,5.3873781 c -0.367796,-0.1847317 -0.91949,0 -1.287286,0.1847318 -0.367796,0.1847317 -0.551694,0.5541951 -0.551694,1.1083902 l -0.551694,7.3892689 c 0,0.738926 -0.551694,1.477853 -1.471184,1.662585 l -7.1720197,1.477854 c -0.367796,0.184731 -0.7355919,0.369463 -0.9194898,0.738926 -0.183898,0.369464 -0.183898,0.923659 0,1.293122 l 3.4940611,6.46561 c 0.3677959,0.738927 0.183898,1.477854 -0.3677959,2.032049 L 1.43994,32.912403 c -0.3677959,0.369463 -0.5516939,0.738927 -0.3677959,1.293122 0,0.369464 0.3677959,0.923659 0.7355918,1.10839 l 6.4364284,3.694634 c 0.7355918,0.369464 1.1033877,1.108391 0.9194898,2.032049 l -1.6550816,7.204537 c -0.183898,0.369463 0,0.923659 0.3677959,1.293122 0.3677959,0.369464 0.7355918,0.554195 1.1033877,0.554195 l 7.3559179,-0.554195 c 0.735592,0 1.471184,0.369464 1.83898,1.10839 l 2.574571,6.835074 c 0.183898,0.369463 0.551694,0.738926 0.91949,0.923658 0.367796,0.184732 0.91949,0 1.287286,-0.184732 l 5.884734,-4.433561 c 0.551694,-0.554195 1.471184,-0.554195 2.206776,0 l 5.884734,4.433561 c 0.183898,0.184732 0.551694,0.369464 0.91949,0.369464 h 0.367796 c 0.367796,-0.184732 0.735592,-0.369464 0.91949,-0.923659 l 2.574571,-6.835073 c 0.367796,-0.738927 0.91949,-1.293122 1.83898,-1.10839 l 7.355918,0.554195 c 0.367796,0 0.91949,-0.184732 1.103388,-0.554195 0.367796,-0.369464 0.367796,-0.738927 0.367796,-1.293122 L 50.90849,41.22533 c -0.183898,-0.738927 0.183898,-1.477854 0.91949,-2.032049 l 6.436428,-3.509902 C 58.632204,35.498647 59,35.129184 59,34.574989 58.816102,34.020793 58.816102,33.466598 58.448306,33.097135 Z" />
    </g>
  </g>
</svg>
