<?xml version="1.0" encoding="utf-8"?>
<svg version="1.1" xmlns="http://www.w3.org/2000/svg" xmlns:xlink="http://www.w3.org/1999/xlink" height="180" width="180">
  <g>
    <g opacity="1">
      <g opacity="0">
        <rect fill="rgb(216,216,216)" fill-opacity="1" opacity="1" x="-0.2600158773639123" y="0" width="180" height="180" rx="0" ry="0"/>
      </g>
      <g opacity="1">
        <g opacity="1">
          <g opacity="1">
            <rect fill="rgb(219,219,219)" fill-opacity="1" opacity="1" x="45.623028173336934" y="85.57979871583666" width="90.377929030433" height="77.34265080488991" rx="0" ry="0"/>
          </g>
          <g opacity="1">
            <path fill="rgb(200,199,194)" fill-opacity="1" opacity="1" fill-rule="evenodd" d="M54.31321365703241 69.93746484518488L127.31077172007446 69.93746484518488L136.00095720376993 86.4488172642063L45.623028173336934 86.4488172642063L54.31321365703241 69.93746484518488Z"/>
          </g>
          <g opacity="0.5">
            <path fill="rgb(255,255,255)" fill-opacity="1" opacity="1" fill-rule="evenodd" d="M86.46689994670669 86.10335694587371L88.20493704344574 69.93746484518488L96.02610397877145 69.93746484518488L97.7641410755105 85.97206914743586"/>
          </g>
          <g opacity="1">
            <rect fill="rgb(200,199,194)" fill-opacity="1" opacity="1" x="74.30064026953187" y="106.4362438767057" width="33.89172338641254" height="9.559204032065011" rx="0" ry="0"/>
          </g>
          <g opacity="1">
            <path fill="rgb(255,255,255)" fill-opacity="1" opacity="1" fill-rule="evenodd" d="M97.7641410755105 85.97206914743583L97.7641410755105 99.48409548974954L92.23518722878018 96.00802129627134L86.46689994670669 99.48409548974954L86.46689994670669 86.1033569458737"/>
          </g>
        </g>
        <g opacity="1">
          <g opacity="1">
            <path fill-opacity="0" stroke="rgb(200,199,194)" stroke-opacity="1" stroke-width="3" opacity="1" fill-rule="evenodd" d="M2.1731450937843113 91.06276003007224C1.5593249658134598 92.51648305568783 1.2199523679046251 94.1143958664576 1.2199523679046251 95.79157339453467C1.2199523679046251 102.51081307634439 6.666972363268597 107.9578330717084 13.38621204507829 107.9578330717084"/>
          </g>
          <g transform="translate(120.60178814956694, 23.39815992933672) rotate(-195.0000697250126) translate(-120.60178814956694, -23.39815992933672)" opacity="1">
            <path fill-opacity="0" stroke="rgb(200,199,194)" stroke-opacity="1" stroke-width="3" opacity="1" fill-rule="evenodd" d="M116.93754735477614 17.364205271609535C116.49910440622554 18.402578861334955 116.25669540771923 19.543945154741927 116.25669540771923 20.741929103368403C116.25669540771923 25.541386018946767 120.14742397583632 29.432114587063904 124.94688089141464 29.432114587063904"/>
          </g>
          <g opacity="1">
            <path fill="rgb(219,219,219)" fill-opacity="1" opacity="1" fill-rule="evenodd" d="M29.456768496163306 41.49709481269492L34.82730312508708 44.735926942468225L33.40645779850287 38.627595565978666L38.14695397985872 34.519744887835806L31.89784159853335 33.9835604434918L29.456768496163306 28.22457452344679L27.015695393793266 33.9835604434918L20.76658301246789 34.519744887835806L25.507079193823742 38.627595565978666L24.08623386723954 44.735926942468225L29.456768496163306 41.49709481269492Z"/>
          </g>
          <g opacity="1">
            <path fill="rgb(200,199,194)" fill-opacity="1" opacity="1" fill-rule="evenodd" d="M159.80955075159847 73.63820771486755L165.18008538052226 76.87703984464088L163.75924005393804 70.76870846815129L168.4997362352939 66.66085779000842L162.25062385396853 66.12467334566442L159.80955075159847 60.3656874256194L157.36847764922842 66.12467334566442L151.11936526790305 66.66085779000842L155.85986144925891 70.76870846815129L154.4390161226747 76.87703984464088L159.80955075159847 73.63820771486755Z"/>
          </g>
          <g transform="translate(170.07662472579437, 128.55873380407508) rotate(-120.00004290770003) translate(-170.07662472579437, -128.55873380407508)" opacity="1">
            <path fill-opacity="0" stroke="rgb(219,219,219)" stroke-opacity="1" stroke-width="3" opacity="1" fill-rule="evenodd" d="M174.63897210473453 119.43403904619481C169.59954234337724 119.43403904619481 165.51427734685421 123.5193040427178 165.51427734685421 128.55873380407508C165.51427734685421 133.59816356543237 169.59954234337724 137.68342856195534 174.63897210473453 137.68342856195534"/>
          </g>
        </g>
      </g>
    </g>
  </g>
</svg>