<?xml version="1.0" encoding="utf-8"?>
<svg version="1.1" xmlns="http://www.w3.org/2000/svg" xmlns:xlink="http://www.w3.org/1999/xlink" height="24" width="24">
  <g>
    <g opacity="1">
      <g opacity="0">
        <rect fill="rgb(216,216,216)" fill-opacity="1" opacity="1" x="0" y="0" width="24" height="24" rx="0" ry="0"/>
      </g>
      <g opacity="1">
        <path fill="rgb(255,255,255)" fill-opacity="1" opacity="1" fill-rule="evenodd" d="M16 17.600000381469727L16 6.400000095367432Q16 5.831250190734863 15.604166030883789 5.415625095367432Q15.208333969116211 5 14.666666030883789 5L9.333333015441895 5Q8.791666984558105 5 8.395833015441895 5.415625095367432C8.13194465637207 5.692708492279053 8 6.020833492279053 8 6.400000095367432L8 17.600000381469727Q8 18.168750762939453 8.395833015441895 18.584375381469727C8.659722328186035 18.86145782470703 8.972222328186035 19 9.333333015441895 19L14.666666030883789 19Q15.208333969116211 19 15.604166030883789 18.584375381469727Q16 18.168750762939453 16 17.600000381469727ZM13 6.462500095367432C13 6.3541669845581055 12.94444465637207 6.300000190734863 12.833333015441895 6.300000190734863L11.166666984558105 6.300000190734863C11.05555534362793 6.300000190734863 11 6.3541669845581055 11 6.462500095367432C11 6.570833683013916 11.05555534362793 6.625 11.166666984558105 6.625L12.833333015441895 6.625C12.94444465637207 6.625 13 6.570833683013916 13 6.462500095367432ZM15 7.9666666984558105L15 16.03333282470703Q15.000000953674316 16.182292938232422 14.901041030883789 16.29114532470703C14.83506965637207 16.36371612548828 14.75694465637207 16.399999618530273 14.666666030883789 16.399999618530273L9.333333015441895 16.399999618530273C9.24305534362793 16.399999618530273 9.16493034362793 16.36371612548828 9.098958015441895 16.29114532470703Q9 16.182292938232422 9 16.03333282470703L9 7.9666666984558105Q9 7.8177080154418945 9.098958015441895 7.7088541984558105Q9.197916030883789 7.600000381469727 9.333333015441895 7.599999904632568L14.666666030883789 7.599999904632568Q14.802083969116211 7.600000381469727 14.901041030883789 7.7088541984558105Q15.000000953674316 7.8177080154418945 15 7.9666666984558105ZM12.588541984558105 17.12617301940918C12.751736640930176 17.285287857055664 12.833333969116211 17.4765625 12.833333969116211 17.700000762939453C12.833333969116211 17.923439025878906 12.751736640930176 18.114713668823242 12.588541984558105 18.273828506469727C12.425347328186035 18.43294334411621 12.229166984558105 18.512500762939453 12 18.512500762939453C11.770833969116211 18.512500762939453 11.574652671813965 18.43294334411621 11.411458969116211 18.273828506469727C11.24826431274414 18.114713668823242 11.166666984558105 17.923439025878906 11.166666984558105 17.700000762939453C11.166666984558105 17.4765625 11.24826431274414 17.285287857055664 11.411458969116211 17.12617301940918C11.574652671813965 16.967058181762695 11.770833969116211 16.887500762939453 12 16.887500762939453C12.229166984558105 16.887500762939453 12.425347328186035 16.967058181762695 12.588541984558105 17.12617301940918Z"/>
      </g>
    </g>
  </g>
</svg>